<svg width="120" height="120" viewBox="0 0 120 120" fill="none" xmlns="http://www.w3.org/2000/svg">
<path d="M82.5683 44.2405L73.7666 54.3019H88.8552L116.518 42.1444L111.488 31.6638L82.5683 44.2405Z" fill="#EF5929" stroke="#EF5929"/>
<path d="M87.1032 64.8087L73.7666 65.698L84.4359 76.3697L112.591 87.3379L116.444 76.3697L87.1032 64.8087Z" fill="#EF5929" stroke="#EF5929"/>
<path d="M75.7689 82.5598L65.7098 73.7561V88.8482L77.8646 116.517L88.3428 111.486L75.7689 82.5598Z" fill="#EF5929" stroke="#EF5929"/>
<path d="M55.2055 87.0955L54.3164 73.7559L43.6471 84.4276L32.6815 112.589L43.6471 116.443L55.2055 87.0955Z" fill="#EF5929" stroke="#EF5929"/>
<path d="M37.3028 74.8439L46.1045 64.7825H31.0159L3.35339 76.94L8.38293 87.4207L37.3028 74.8439Z" fill="#EF5929" stroke="#EF5929"/>
<path d="M32.8968 53.986L46.2334 53.0967L35.5641 42.425L7.40911 31.4568L3.55632 42.425L32.8968 53.986Z" fill="#EF5929" stroke="#EF5929"/>
<path d="M44.4274 36.6946L54.4865 45.4983L54.4865 30.4062L42.3317 2.73741L31.8535 7.76811L44.4274 36.6946Z" fill="#EF5929" stroke="#EF5929"/>
<path d="M64.8218 32.9045L65.7109 46.2441L76.3802 35.5724L87.3458 7.41097L76.3802 3.5573L64.8218 32.9045Z" fill="#EF5929" stroke="#EF5929"/>
</svg>
